<mxfile host="app.diagrams.net" modified="2022-05-10T08:14:07.392Z" agent="5.0 (Macintosh; Intel Mac OS X 10_15_7) AppleWebKit/605.1.15 (KHTML, like Gecko) Version/15.4 Safari/605.1.15" etag="Kctkv9xnadRWw_ROMGZe" version="18.0.2" type="github" pages="2">
  <diagram id="OnJ23Ht3TBIDX5-kmEjJ" name="Page-1">
    <mxGraphModel dx="1555" dy="804" grid="1" gridSize="10" guides="1" tooltips="1" connect="1" arrows="1" fold="1" page="1" pageScale="1" pageWidth="850" pageHeight="1100" math="0" shadow="0">
      <root>
        <mxCell id="0" />
        <mxCell id="1" parent="0" />
        <mxCell id="N9u76RXB5Sf6qnzRGAIE-1" value="Person" style="swimlane;fontStyle=1;align=center;verticalAlign=top;childLayout=stackLayout;horizontal=1;startSize=26;horizontalStack=0;resizeParent=1;resizeParentMax=0;resizeLast=0;collapsible=1;marginBottom=0;fontSize=13;" vertex="1" parent="1">
          <mxGeometry x="40" y="650" width="230" height="180" as="geometry" />
        </mxCell>
        <mxCell id="N9u76RXB5Sf6qnzRGAIE-2" value="+ field: Name" style="text;strokeColor=none;fillColor=none;align=left;verticalAlign=top;spacingLeft=4;spacingRight=4;overflow=hidden;rotatable=0;points=[[0,0.5],[1,0.5]];portConstraint=eastwest;fontSize=13;" vertex="1" parent="N9u76RXB5Sf6qnzRGAIE-1">
          <mxGeometry y="26" width="230" height="24" as="geometry" />
        </mxCell>
        <mxCell id="N9u76RXB5Sf6qnzRGAIE-7" value="+ field: Email Address" style="text;strokeColor=none;fillColor=none;align=left;verticalAlign=top;spacingLeft=4;spacingRight=4;overflow=hidden;rotatable=0;points=[[0,0.5],[1,0.5]];portConstraint=eastwest;fontSize=13;" vertex="1" parent="N9u76RXB5Sf6qnzRGAIE-1">
          <mxGeometry y="50" width="230" height="24" as="geometry" />
        </mxCell>
        <mxCell id="N9u76RXB5Sf6qnzRGAIE-8" value="+ field: Array of locations" style="text;strokeColor=none;fillColor=none;align=left;verticalAlign=top;spacingLeft=4;spacingRight=4;overflow=hidden;rotatable=0;points=[[0,0.5],[1,0.5]];portConstraint=eastwest;fontSize=13;" vertex="1" parent="N9u76RXB5Sf6qnzRGAIE-1">
          <mxGeometry y="74" width="230" height="24" as="geometry" />
        </mxCell>
        <mxCell id="Z7l9zsdM9GBtYfNbKrUu-1" value="+ field: Array of time" style="text;strokeColor=none;fillColor=none;align=left;verticalAlign=top;spacingLeft=4;spacingRight=4;overflow=hidden;rotatable=0;points=[[0,0.5],[1,0.5]];portConstraint=eastwest;fontSize=13;" vertex="1" parent="N9u76RXB5Sf6qnzRGAIE-1">
          <mxGeometry y="98" width="230" height="24" as="geometry" />
        </mxCell>
        <mxCell id="N9u76RXB5Sf6qnzRGAIE-3" value="" style="line;strokeWidth=1;fillColor=none;align=left;verticalAlign=middle;spacingTop=-1;spacingLeft=3;spacingRight=3;rotatable=0;labelPosition=right;points=[];portConstraint=eastwest;fontSize=13;" vertex="1" parent="N9u76RXB5Sf6qnzRGAIE-1">
          <mxGeometry y="122" width="230" height="8" as="geometry" />
        </mxCell>
        <mxCell id="N9u76RXB5Sf6qnzRGAIE-4" value="+ method(type): Setters and &#xa;Getters for all the fields" style="text;strokeColor=none;fillColor=none;align=left;verticalAlign=top;spacingLeft=4;spacingRight=4;overflow=hidden;rotatable=0;points=[[0,0.5],[1,0.5]];portConstraint=eastwest;fontSize=13;" vertex="1" parent="N9u76RXB5Sf6qnzRGAIE-1">
          <mxGeometry y="130" width="230" height="50" as="geometry" />
        </mxCell>
        <mxCell id="N9u76RXB5Sf6qnzRGAIE-6" value="Backend" style="text;html=1;align=center;verticalAlign=middle;resizable=0;points=[];autosize=1;strokeColor=none;fillColor=none;fontSize=13;" vertex="1" parent="1">
          <mxGeometry x="810" y="20" width="70" height="20" as="geometry" />
        </mxCell>
        <mxCell id="N9u76RXB5Sf6qnzRGAIE-9" value="Zone" style="swimlane;fontStyle=1;align=center;verticalAlign=top;childLayout=stackLayout;horizontal=1;startSize=26;horizontalStack=0;resizeParent=1;resizeParentMax=0;resizeLast=0;collapsible=1;marginBottom=0;fontSize=13;" vertex="1" parent="1">
          <mxGeometry x="40" y="240" width="230" height="378" as="geometry" />
        </mxCell>
        <mxCell id="N9u76RXB5Sf6qnzRGAIE-10" value="+ field: Location To be" style="text;strokeColor=none;fillColor=none;align=left;verticalAlign=top;spacingLeft=4;spacingRight=4;overflow=hidden;rotatable=0;points=[[0,0.5],[1,0.5]];portConstraint=eastwest;fontSize=13;" vertex="1" parent="N9u76RXB5Sf6qnzRGAIE-9">
          <mxGeometry y="26" width="230" height="26" as="geometry" />
        </mxCell>
        <mxCell id="N9u76RXB5Sf6qnzRGAIE-13" value="+ field: Time To be there" style="text;strokeColor=none;fillColor=none;align=left;verticalAlign=top;spacingLeft=4;spacingRight=4;overflow=hidden;rotatable=0;points=[[0,0.5],[1,0.5]];portConstraint=eastwest;fontSize=13;" vertex="1" parent="N9u76RXB5Sf6qnzRGAIE-9">
          <mxGeometry y="52" width="230" height="26" as="geometry" />
        </mxCell>
        <mxCell id="N9u76RXB5Sf6qnzRGAIE-14" value="+ field: Time precision" style="text;strokeColor=none;fillColor=none;align=left;verticalAlign=top;spacingLeft=4;spacingRight=4;overflow=hidden;rotatable=0;points=[[0,0.5],[1,0.5]];portConstraint=eastwest;fontSize=13;" vertex="1" parent="N9u76RXB5Sf6qnzRGAIE-9">
          <mxGeometry y="78" width="230" height="26" as="geometry" />
        </mxCell>
        <mxCell id="N9u76RXB5Sf6qnzRGAIE-15" value="+ field: Location precision" style="text;strokeColor=none;fillColor=none;align=left;verticalAlign=top;spacingLeft=4;spacingRight=4;overflow=hidden;rotatable=0;points=[[0,0.5],[1,0.5]];portConstraint=eastwest;fontSize=13;" vertex="1" parent="N9u76RXB5Sf6qnzRGAIE-9">
          <mxGeometry y="104" width="230" height="26" as="geometry" />
        </mxCell>
        <mxCell id="Bk3x3sHnwQurIrZSOyBp-13" value="+ field: How do they want " style="text;strokeColor=none;fillColor=none;align=left;verticalAlign=top;spacingLeft=4;spacingRight=4;overflow=hidden;rotatable=0;points=[[0,0.5],[1,0.5]];portConstraint=eastwest;fontSize=13;" vertex="1" parent="N9u76RXB5Sf6qnzRGAIE-9">
          <mxGeometry y="130" width="230" height="26" as="geometry" />
        </mxCell>
        <mxCell id="Bk3x3sHnwQurIrZSOyBp-14" value="+ field: How do they want &#xa;to notify their friends to be &#xa;notified (In app notification), &#xa;sms, phone call" style="text;strokeColor=none;fillColor=none;align=left;verticalAlign=top;spacingLeft=4;spacingRight=4;overflow=hidden;rotatable=0;points=[[0,0.5],[1,0.5]];portConstraint=eastwest;fontSize=13;" vertex="1" parent="N9u76RXB5Sf6qnzRGAIE-9">
          <mxGeometry y="156" width="230" height="74" as="geometry" />
        </mxCell>
        <mxCell id="Bk3x3sHnwQurIrZSOyBp-15" value="+ field: The message to be&#xa;sent" style="text;strokeColor=none;fillColor=none;align=left;verticalAlign=top;spacingLeft=4;spacingRight=4;overflow=hidden;rotatable=0;points=[[0,0.5],[1,0.5]];portConstraint=eastwest;fontSize=13;" vertex="1" parent="N9u76RXB5Sf6qnzRGAIE-9">
          <mxGeometry y="230" width="230" height="40" as="geometry" />
        </mxCell>
        <mxCell id="N9u76RXB5Sf6qnzRGAIE-11" value="" style="line;strokeWidth=1;fillColor=none;align=left;verticalAlign=middle;spacingTop=-1;spacingLeft=3;spacingRight=3;rotatable=0;labelPosition=right;points=[];portConstraint=eastwest;fontSize=13;" vertex="1" parent="N9u76RXB5Sf6qnzRGAIE-9">
          <mxGeometry y="270" width="230" height="28" as="geometry" />
        </mxCell>
        <mxCell id="N9u76RXB5Sf6qnzRGAIE-12" value="+ method(type): type" style="text;strokeColor=none;fillColor=none;align=left;verticalAlign=top;spacingLeft=4;spacingRight=4;overflow=hidden;rotatable=0;points=[[0,0.5],[1,0.5]];portConstraint=eastwest;fontSize=13;" vertex="1" parent="N9u76RXB5Sf6qnzRGAIE-9">
          <mxGeometry y="298" width="230" height="26" as="geometry" />
        </mxCell>
        <mxCell id="N9u76RXB5Sf6qnzRGAIE-16" value="+ method(type): type" style="text;strokeColor=none;fillColor=none;align=left;verticalAlign=top;spacingLeft=4;spacingRight=4;overflow=hidden;rotatable=0;points=[[0,0.5],[1,0.5]];portConstraint=eastwest;fontSize=13;" vertex="1" parent="N9u76RXB5Sf6qnzRGAIE-9">
          <mxGeometry y="324" width="230" height="26" as="geometry" />
        </mxCell>
        <mxCell id="N9u76RXB5Sf6qnzRGAIE-17" value="+ method(type): type" style="text;strokeColor=none;fillColor=none;align=left;verticalAlign=top;spacingLeft=4;spacingRight=4;overflow=hidden;rotatable=0;points=[[0,0.5],[1,0.5]];portConstraint=eastwest;fontSize=13;" vertex="1" parent="N9u76RXB5Sf6qnzRGAIE-9">
          <mxGeometry y="350" width="230" height="28" as="geometry" />
        </mxCell>
        <mxCell id="Z7l9zsdM9GBtYfNbKrUu-2" value="Classes" style="whiteSpace=wrap;html=1;align=center;fontSize=13;" vertex="1" parent="1">
          <mxGeometry x="80" y="170" width="100" height="40" as="geometry" />
        </mxCell>
        <mxCell id="Z7l9zsdM9GBtYfNbKrUu-3" value="Authentication Services" style="whiteSpace=wrap;html=1;align=center;fontSize=13;" vertex="1" parent="1">
          <mxGeometry x="375" y="170" width="125" height="40" as="geometry" />
        </mxCell>
        <mxCell id="Z7l9zsdM9GBtYfNbKrUu-4" value="Authentication App" style="swimlane;fontStyle=0;childLayout=stackLayout;horizontal=1;startSize=30;horizontalStack=0;resizeParent=1;resizeParentMax=0;resizeLast=0;collapsible=1;marginBottom=0;fontSize=13;" vertex="1" parent="1">
          <mxGeometry x="340" y="230" width="195" height="200" as="geometry" />
        </mxCell>
        <mxCell id="Z7l9zsdM9GBtYfNbKrUu-5" value="Writing the user to the &#xa;database. " style="text;strokeColor=none;fillColor=none;align=left;verticalAlign=middle;spacingLeft=4;spacingRight=4;overflow=hidden;points=[[0,0.5],[1,0.5]];portConstraint=eastwest;rotatable=0;fontSize=13;" vertex="1" parent="Z7l9zsdM9GBtYfNbKrUu-4">
          <mxGeometry y="30" width="195" height="40" as="geometry" />
        </mxCell>
        <mxCell id="Z7l9zsdM9GBtYfNbKrUu-6" value="Sending the massage to be&#xa;authenticated (We use Twillo &#xa;services for this) " style="text;strokeColor=none;fillColor=none;align=left;verticalAlign=middle;spacingLeft=4;spacingRight=4;overflow=hidden;points=[[0,0.5],[1,0.5]];portConstraint=eastwest;rotatable=0;fontSize=13;" vertex="1" parent="Z7l9zsdM9GBtYfNbKrUu-4">
          <mxGeometry y="70" width="195" height="60" as="geometry" />
        </mxCell>
        <mxCell id="Z7l9zsdM9GBtYfNbKrUu-7" value="Forgot Password" style="text;strokeColor=none;fillColor=none;align=left;verticalAlign=middle;spacingLeft=4;spacingRight=4;overflow=hidden;points=[[0,0.5],[1,0.5]];portConstraint=eastwest;rotatable=0;fontSize=13;" vertex="1" parent="Z7l9zsdM9GBtYfNbKrUu-4">
          <mxGeometry y="130" width="195" height="70" as="geometry" />
        </mxCell>
        <mxCell id="Bk3x3sHnwQurIrZSOyBp-1" value="The actual app" style="whiteSpace=wrap;html=1;align=center;fontSize=13;" vertex="1" parent="1">
          <mxGeometry x="1330" y="170" width="100" height="40" as="geometry" />
        </mxCell>
        <mxCell id="Bk3x3sHnwQurIrZSOyBp-2" value="User" style="swimlane;fontStyle=1;align=center;verticalAlign=top;childLayout=stackLayout;horizontal=1;startSize=26;horizontalStack=0;resizeParent=1;resizeParentMax=0;resizeLast=0;collapsible=1;marginBottom=0;fontSize=13;" vertex="1" parent="1">
          <mxGeometry x="40" y="870" width="230" height="430" as="geometry" />
        </mxCell>
        <mxCell id="Bk3x3sHnwQurIrZSOyBp-3" value="+ field: user person    &#xa;&#xa;" style="text;strokeColor=none;fillColor=none;align=left;verticalAlign=top;spacingLeft=4;spacingRight=4;overflow=hidden;rotatable=0;points=[[0,0.5],[1,0.5]];portConstraint=eastwest;fontSize=13;" vertex="1" parent="Bk3x3sHnwQurIrZSOyBp-2">
          <mxGeometry y="26" width="230" height="26" as="geometry" />
        </mxCell>
        <mxCell id="Bk3x3sHnwQurIrZSOyBp-41" value="+ field: Password" style="text;strokeColor=none;fillColor=none;align=left;verticalAlign=top;spacingLeft=4;spacingRight=4;overflow=hidden;rotatable=0;points=[[0,0.5],[1,0.5]];portConstraint=eastwest;fontSize=13;" vertex="1" parent="Bk3x3sHnwQurIrZSOyBp-2">
          <mxGeometry y="52" width="230" height="26" as="geometry" />
        </mxCell>
        <mxCell id="Bk3x3sHnwQurIrZSOyBp-42" value="+ field: Email and Phone &#xa;number" style="text;strokeColor=none;fillColor=none;align=left;verticalAlign=top;spacingLeft=4;spacingRight=4;overflow=hidden;rotatable=0;points=[[0,0.5],[1,0.5]];portConstraint=eastwest;fontSize=13;" vertex="1" parent="Bk3x3sHnwQurIrZSOyBp-2">
          <mxGeometry y="78" width="230" height="42" as="geometry" />
        </mxCell>
        <mxCell id="Bk3x3sHnwQurIrZSOyBp-6" value="+ field: List of friend person&#xa;" style="text;strokeColor=none;fillColor=none;align=left;verticalAlign=top;spacingLeft=4;spacingRight=4;overflow=hidden;rotatable=0;points=[[0,0.5],[1,0.5]];portConstraint=eastwest;fontSize=13;" vertex="1" parent="Bk3x3sHnwQurIrZSOyBp-2">
          <mxGeometry y="120" width="230" height="26" as="geometry" />
        </mxCell>
        <mxCell id="Bk3x3sHnwQurIrZSOyBp-10" value="+ field: List of user zones" style="text;strokeColor=none;fillColor=none;align=left;verticalAlign=top;spacingLeft=4;spacingRight=4;overflow=hidden;rotatable=0;points=[[0,0.5],[1,0.5]];portConstraint=eastwest;fontSize=13;" vertex="1" parent="Bk3x3sHnwQurIrZSOyBp-2">
          <mxGeometry y="146" width="230" height="26" as="geometry" />
        </mxCell>
        <mxCell id="Bk3x3sHnwQurIrZSOyBp-9" value="+ field: " style="text;strokeColor=none;fillColor=none;align=left;verticalAlign=top;spacingLeft=4;spacingRight=4;overflow=hidden;rotatable=0;points=[[0,0.5],[1,0.5]];portConstraint=eastwest;fontSize=13;" vertex="1" parent="Bk3x3sHnwQurIrZSOyBp-2">
          <mxGeometry y="172" width="230" height="26" as="geometry" />
        </mxCell>
        <mxCell id="Bk3x3sHnwQurIrZSOyBp-8" value="+ field: " style="text;strokeColor=none;fillColor=none;align=left;verticalAlign=top;spacingLeft=4;spacingRight=4;overflow=hidden;rotatable=0;points=[[0,0.5],[1,0.5]];portConstraint=eastwest;fontSize=13;" vertex="1" parent="Bk3x3sHnwQurIrZSOyBp-2">
          <mxGeometry y="198" width="230" height="26" as="geometry" />
        </mxCell>
        <mxCell id="Bk3x3sHnwQurIrZSOyBp-4" value="" style="line;strokeWidth=1;fillColor=none;align=left;verticalAlign=middle;spacingTop=-1;spacingLeft=3;spacingRight=3;rotatable=0;labelPosition=right;points=[];portConstraint=eastwest;fontSize=13;" vertex="1" parent="Bk3x3sHnwQurIrZSOyBp-2">
          <mxGeometry y="224" width="230" height="8" as="geometry" />
        </mxCell>
        <mxCell id="Bk3x3sHnwQurIrZSOyBp-5" value="+ method(type): type" style="text;strokeColor=none;fillColor=none;align=left;verticalAlign=top;spacingLeft=4;spacingRight=4;overflow=hidden;rotatable=0;points=[[0,0.5],[1,0.5]];portConstraint=eastwest;fontSize=13;" vertex="1" parent="Bk3x3sHnwQurIrZSOyBp-2">
          <mxGeometry y="232" width="230" height="26" as="geometry" />
        </mxCell>
        <mxCell id="Bk3x3sHnwQurIrZSOyBp-11" value="+ method(type): type" style="text;strokeColor=none;fillColor=none;align=left;verticalAlign=top;spacingLeft=4;spacingRight=4;overflow=hidden;rotatable=0;points=[[0,0.5],[1,0.5]];portConstraint=eastwest;fontSize=13;" vertex="1" parent="Bk3x3sHnwQurIrZSOyBp-2">
          <mxGeometry y="258" width="230" height="26" as="geometry" />
        </mxCell>
        <mxCell id="Bk3x3sHnwQurIrZSOyBp-12" value="+ method(type): type" style="text;strokeColor=none;fillColor=none;align=left;verticalAlign=top;spacingLeft=4;spacingRight=4;overflow=hidden;rotatable=0;points=[[0,0.5],[1,0.5]];portConstraint=eastwest;fontSize=13;" vertex="1" parent="Bk3x3sHnwQurIrZSOyBp-2">
          <mxGeometry y="284" width="230" height="146" as="geometry" />
        </mxCell>
        <mxCell id="Bk3x3sHnwQurIrZSOyBp-16" value="The fun part" style="swimlane;fontStyle=0;childLayout=stackLayout;horizontal=1;startSize=26;fillColor=none;horizontalStack=0;resizeParent=1;resizeParentMax=0;resizeLast=0;collapsible=1;marginBottom=0;fontSize=13;" vertex="1" parent="1">
          <mxGeometry x="1175" y="230" width="410" height="104" as="geometry" />
        </mxCell>
        <mxCell id="Bk3x3sHnwQurIrZSOyBp-17" value="+ field: type" style="text;strokeColor=none;fillColor=none;align=left;verticalAlign=top;spacingLeft=4;spacingRight=4;overflow=hidden;rotatable=0;points=[[0,0.5],[1,0.5]];portConstraint=eastwest;fontSize=13;" vertex="1" parent="Bk3x3sHnwQurIrZSOyBp-16">
          <mxGeometry y="26" width="410" height="26" as="geometry" />
        </mxCell>
        <mxCell id="Bk3x3sHnwQurIrZSOyBp-18" value="+ field: type" style="text;strokeColor=none;fillColor=none;align=left;verticalAlign=top;spacingLeft=4;spacingRight=4;overflow=hidden;rotatable=0;points=[[0,0.5],[1,0.5]];portConstraint=eastwest;fontSize=13;" vertex="1" parent="Bk3x3sHnwQurIrZSOyBp-16">
          <mxGeometry y="52" width="410" height="26" as="geometry" />
        </mxCell>
        <mxCell id="Bk3x3sHnwQurIrZSOyBp-19" value="+ field: type" style="text;strokeColor=none;fillColor=none;align=left;verticalAlign=top;spacingLeft=4;spacingRight=4;overflow=hidden;rotatable=0;points=[[0,0.5],[1,0.5]];portConstraint=eastwest;fontSize=13;" vertex="1" parent="Bk3x3sHnwQurIrZSOyBp-16">
          <mxGeometry y="78" width="410" height="26" as="geometry" />
        </mxCell>
        <mxCell id="Bk3x3sHnwQurIrZSOyBp-20" value="API&amp;nbsp;" style="whiteSpace=wrap;html=1;align=center;fontSize=13;" vertex="1" parent="1">
          <mxGeometry x="790" y="170" width="110" height="40" as="geometry" />
        </mxCell>
        <mxCell id="Bk3x3sHnwQurIrZSOyBp-21" value="RESTful API" style="swimlane;fontStyle=0;childLayout=stackLayout;horizontal=1;startSize=26;horizontalStack=0;resizeParent=1;resizeParentMax=0;resizeLast=0;collapsible=1;marginBottom=0;align=center;fontSize=14;" vertex="1" parent="1">
          <mxGeometry x="685" y="230" width="320" height="448" as="geometry" />
        </mxCell>
        <mxCell id="Bk3x3sHnwQurIrZSOyBp-22" value="1) (POST) Authentication, either  " style="text;strokeColor=none;fillColor=none;spacingLeft=4;spacingRight=4;overflow=hidden;rotatable=0;points=[[0,0.5],[1,0.5]];portConstraint=eastwest;fontSize=12;" vertex="1" parent="Bk3x3sHnwQurIrZSOyBp-21">
          <mxGeometry y="26" width="320" height="44" as="geometry" />
        </mxCell>
        <mxCell id="Bk3x3sHnwQurIrZSOyBp-23" value="2)" style="text;strokeColor=none;fillColor=none;spacingLeft=4;spacingRight=4;overflow=hidden;rotatable=0;points=[[0,0.5],[1,0.5]];portConstraint=eastwest;fontSize=12;" vertex="1" parent="Bk3x3sHnwQurIrZSOyBp-21">
          <mxGeometry y="70" width="320" height="54" as="geometry" />
        </mxCell>
        <mxCell id="Bk3x3sHnwQurIrZSOyBp-24" value="3)" style="text;strokeColor=none;fillColor=none;spacingLeft=4;spacingRight=4;overflow=hidden;rotatable=0;points=[[0,0.5],[1,0.5]];portConstraint=eastwest;fontSize=12;" vertex="1" parent="Bk3x3sHnwQurIrZSOyBp-21">
          <mxGeometry y="124" width="320" height="54" as="geometry" />
        </mxCell>
        <mxCell id="Bk3x3sHnwQurIrZSOyBp-43" value="4)" style="text;strokeColor=none;fillColor=none;spacingLeft=4;spacingRight=4;overflow=hidden;rotatable=0;points=[[0,0.5],[1,0.5]];portConstraint=eastwest;fontSize=12;" vertex="1" parent="Bk3x3sHnwQurIrZSOyBp-21">
          <mxGeometry y="178" width="320" height="54" as="geometry" />
        </mxCell>
        <mxCell id="Bk3x3sHnwQurIrZSOyBp-44" value="5)" style="text;strokeColor=none;fillColor=none;spacingLeft=4;spacingRight=4;overflow=hidden;rotatable=0;points=[[0,0.5],[1,0.5]];portConstraint=eastwest;fontSize=12;" vertex="1" parent="Bk3x3sHnwQurIrZSOyBp-21">
          <mxGeometry y="232" width="320" height="54" as="geometry" />
        </mxCell>
        <mxCell id="Bk3x3sHnwQurIrZSOyBp-45" value="6)" style="text;strokeColor=none;fillColor=none;spacingLeft=4;spacingRight=4;overflow=hidden;rotatable=0;points=[[0,0.5],[1,0.5]];portConstraint=eastwest;fontSize=12;" vertex="1" parent="Bk3x3sHnwQurIrZSOyBp-21">
          <mxGeometry y="286" width="320" height="54" as="geometry" />
        </mxCell>
        <mxCell id="Bk3x3sHnwQurIrZSOyBp-46" value="Item 3" style="text;strokeColor=none;fillColor=none;spacingLeft=4;spacingRight=4;overflow=hidden;rotatable=0;points=[[0,0.5],[1,0.5]];portConstraint=eastwest;fontSize=12;" vertex="1" parent="Bk3x3sHnwQurIrZSOyBp-21">
          <mxGeometry y="340" width="320" height="54" as="geometry" />
        </mxCell>
        <mxCell id="Bk3x3sHnwQurIrZSOyBp-47" value="Item 3" style="text;strokeColor=none;fillColor=none;spacingLeft=4;spacingRight=4;overflow=hidden;rotatable=0;points=[[0,0.5],[1,0.5]];portConstraint=eastwest;fontSize=12;" vertex="1" parent="Bk3x3sHnwQurIrZSOyBp-21">
          <mxGeometry y="394" width="320" height="54" as="geometry" />
        </mxCell>
      </root>
    </mxGraphModel>
  </diagram>
  <diagram id="3DfGF0o8X33VtH4nLFIE" name="Page-2">
    <mxGraphModel dx="1555" dy="3004" grid="1" gridSize="10" guides="1" tooltips="1" connect="1" arrows="1" fold="1" page="1" pageScale="1" pageWidth="850" pageHeight="1100" math="0" shadow="0">
      <root>
        <mxCell id="0" />
        <mxCell id="1" parent="0" />
        <mxCell id="FKi8MtsjQ0KQ6AIrLRFd-1" value="UI DESIGN&amp;nbsp;" style="text;html=1;strokeColor=none;fillColor=none;align=center;verticalAlign=middle;whiteSpace=wrap;rounded=0;" vertex="1" parent="1">
          <mxGeometry x="325" y="-2200" width="200" height="40" as="geometry" />
        </mxCell>
        <mxCell id="FKi8MtsjQ0KQ6AIrLRFd-16" value="" style="edgeStyle=orthogonalEdgeStyle;rounded=0;orthogonalLoop=1;jettySize=auto;html=1;" edge="1" parent="1" source="FKi8MtsjQ0KQ6AIrLRFd-4" target="FKi8MtsjQ0KQ6AIrLRFd-13">
          <mxGeometry relative="1" as="geometry" />
        </mxCell>
        <mxCell id="N7ADjUToNaB00IMNBGgR-2" value="" style="edgeStyle=orthogonalEdgeStyle;rounded=0;orthogonalLoop=1;jettySize=auto;html=1;" edge="1" parent="1" source="FKi8MtsjQ0KQ6AIrLRFd-4">
          <mxGeometry relative="1" as="geometry">
            <mxPoint x="585" y="-2020" as="targetPoint" />
          </mxGeometry>
        </mxCell>
        <mxCell id="FKi8MtsjQ0KQ6AIrLRFd-4" value="" style="rounded=1;whiteSpace=wrap;html=1;" vertex="1" parent="1">
          <mxGeometry x="352.5" y="-2120" width="160" height="200" as="geometry" />
        </mxCell>
        <mxCell id="FKi8MtsjQ0KQ6AIrLRFd-5" value="Login/Signup" style="text;html=1;strokeColor=none;fillColor=none;align=center;verticalAlign=middle;whiteSpace=wrap;rounded=0;" vertex="1" parent="1">
          <mxGeometry x="380" y="-2150" width="90" height="30" as="geometry" />
        </mxCell>
        <mxCell id="FKi8MtsjQ0KQ6AIrLRFd-22" style="edgeStyle=orthogonalEdgeStyle;rounded=0;orthogonalLoop=1;jettySize=auto;html=1;entryX=0.5;entryY=0;entryDx=0;entryDy=0;" edge="1" parent="1" source="FKi8MtsjQ0KQ6AIrLRFd-13" target="FKi8MtsjQ0KQ6AIrLRFd-29">
          <mxGeometry relative="1" as="geometry">
            <mxPoint x="110" y="-1800" as="targetPoint" />
          </mxGeometry>
        </mxCell>
        <mxCell id="FKi8MtsjQ0KQ6AIrLRFd-23" style="edgeStyle=orthogonalEdgeStyle;rounded=0;orthogonalLoop=1;jettySize=auto;html=1;entryX=0.5;entryY=0;entryDx=0;entryDy=0;" edge="1" parent="1" source="FKi8MtsjQ0KQ6AIrLRFd-13" target="FKi8MtsjQ0KQ6AIrLRFd-33">
          <mxGeometry relative="1" as="geometry">
            <mxPoint x="320" y="-1800" as="targetPoint" />
          </mxGeometry>
        </mxCell>
        <mxCell id="FKi8MtsjQ0KQ6AIrLRFd-42" style="edgeStyle=orthogonalEdgeStyle;rounded=0;orthogonalLoop=1;jettySize=auto;html=1;entryX=0.5;entryY=0;entryDx=0;entryDy=0;exitX=1;exitY=0.5;exitDx=0;exitDy=0;" edge="1" parent="1" source="FKi8MtsjQ0KQ6AIrLRFd-13" target="FKi8MtsjQ0KQ6AIrLRFd-38">
          <mxGeometry relative="1" as="geometry">
            <mxPoint x="510" y="-1780" as="targetPoint" />
            <mxPoint x="730" y="-1845" as="sourcePoint" />
          </mxGeometry>
        </mxCell>
        <mxCell id="FKi8MtsjQ0KQ6AIrLRFd-47" style="edgeStyle=orthogonalEdgeStyle;rounded=0;orthogonalLoop=1;jettySize=auto;html=1;entryX=0.5;entryY=0;entryDx=0;entryDy=0;" edge="1" parent="1" source="FKi8MtsjQ0KQ6AIrLRFd-13" target="FKi8MtsjQ0KQ6AIrLRFd-43">
          <mxGeometry relative="1" as="geometry" />
        </mxCell>
        <mxCell id="fke-OMip3FkiB2e0IV1S-7" style="edgeStyle=orthogonalEdgeStyle;rounded=0;orthogonalLoop=1;jettySize=auto;html=1;fontSize=13;" edge="1" parent="1" source="FKi8MtsjQ0KQ6AIrLRFd-13" target="fke-OMip3FkiB2e0IV1S-1">
          <mxGeometry relative="1" as="geometry" />
        </mxCell>
        <mxCell id="FKi8MtsjQ0KQ6AIrLRFd-13" value="App" style="text;html=1;strokeColor=none;fillColor=none;align=center;verticalAlign=middle;whiteSpace=wrap;rounded=0;" vertex="1" parent="1">
          <mxGeometry x="405" y="-1860" width="55" height="30" as="geometry" />
        </mxCell>
        <mxCell id="FKi8MtsjQ0KQ6AIrLRFd-14" value="Authentication" style="text;html=1;strokeColor=none;fillColor=none;align=center;verticalAlign=middle;whiteSpace=wrap;rounded=0;" vertex="1" parent="1">
          <mxGeometry x="380" y="-2100" width="90" height="30" as="geometry" />
        </mxCell>
        <mxCell id="FKi8MtsjQ0KQ6AIrLRFd-17" value="Username,&lt;br&gt;Email,&lt;br&gt;Phone Number" style="text;html=1;strokeColor=none;fillColor=none;align=center;verticalAlign=middle;whiteSpace=wrap;rounded=0;" vertex="1" parent="1">
          <mxGeometry x="387.5" y="-2070" width="90" height="50" as="geometry" />
        </mxCell>
        <mxCell id="FKi8MtsjQ0KQ6AIrLRFd-29" value="On Boarding" style="swimlane;fontStyle=0;childLayout=stackLayout;horizontal=1;startSize=30;horizontalStack=0;resizeParent=1;resizeParentMax=0;resizeLast=0;collapsible=1;marginBottom=0;" vertex="1" parent="1">
          <mxGeometry x="40" y="-1770" width="140" height="90" as="geometry" />
        </mxCell>
        <mxCell id="FKi8MtsjQ0KQ6AIrLRFd-30" value="List of zones" style="text;strokeColor=none;fillColor=none;align=left;verticalAlign=middle;spacingLeft=4;spacingRight=4;overflow=hidden;points=[[0,0.5],[1,0.5]];portConstraint=eastwest;rotatable=0;" vertex="1" parent="FKi8MtsjQ0KQ6AIrLRFd-29">
          <mxGeometry y="30" width="140" height="30" as="geometry" />
        </mxCell>
        <mxCell id="FKi8MtsjQ0KQ6AIrLRFd-31" value="People" style="text;strokeColor=none;fillColor=none;align=left;verticalAlign=middle;spacingLeft=4;spacingRight=4;overflow=hidden;points=[[0,0.5],[1,0.5]];portConstraint=eastwest;rotatable=0;" vertex="1" parent="FKi8MtsjQ0KQ6AIrLRFd-29">
          <mxGeometry y="60" width="140" height="30" as="geometry" />
        </mxCell>
        <mxCell id="FKi8MtsjQ0KQ6AIrLRFd-33" value="Setting" style="swimlane;fontStyle=0;childLayout=stackLayout;horizontal=1;startSize=30;horizontalStack=0;resizeParent=1;resizeParentMax=0;resizeLast=0;collapsible=1;marginBottom=0;" vertex="1" parent="1">
          <mxGeometry x="240" y="-1770" width="140" height="240" as="geometry">
            <mxRectangle x="240" y="-1770" width="70" height="30" as="alternateBounds" />
          </mxGeometry>
        </mxCell>
        <mxCell id="FKi8MtsjQ0KQ6AIrLRFd-34" value="Personal Info" style="text;strokeColor=none;fillColor=none;align=left;verticalAlign=middle;spacingLeft=4;spacingRight=4;overflow=hidden;points=[[0,0.5],[1,0.5]];portConstraint=eastwest;rotatable=0;" vertex="1" parent="FKi8MtsjQ0KQ6AIrLRFd-33">
          <mxGeometry y="30" width="140" height="30" as="geometry" />
        </mxCell>
        <mxCell id="FKi8MtsjQ0KQ6AIrLRFd-35" value="Notification setting" style="text;strokeColor=none;fillColor=none;align=left;verticalAlign=middle;spacingLeft=4;spacingRight=4;overflow=hidden;points=[[0,0.5],[1,0.5]];portConstraint=eastwest;rotatable=0;" vertex="1" parent="FKi8MtsjQ0KQ6AIrLRFd-33">
          <mxGeometry y="60" width="140" height="30" as="geometry" />
        </mxCell>
        <mxCell id="FKi8MtsjQ0KQ6AIrLRFd-36" value="Updating location setting" style="text;strokeColor=none;fillColor=none;align=left;verticalAlign=middle;spacingLeft=4;spacingRight=4;overflow=hidden;points=[[0,0.5],[1,0.5]];portConstraint=eastwest;rotatable=0;" vertex="1" parent="FKi8MtsjQ0KQ6AIrLRFd-33">
          <mxGeometry y="90" width="140" height="30" as="geometry" />
        </mxCell>
        <mxCell id="er8yijVsBBvzPavd1snB-1" value="Personal Preference of" style="text;strokeColor=none;fillColor=none;align=left;verticalAlign=middle;spacingLeft=4;spacingRight=4;overflow=hidden;points=[[0,0.5],[1,0.5]];portConstraint=eastwest;rotatable=0;" vertex="1" parent="FKi8MtsjQ0KQ6AIrLRFd-33">
          <mxGeometry y="120" width="140" height="30" as="geometry" />
        </mxCell>
        <mxCell id="er8yijVsBBvzPavd1snB-2" value="Percision, in what range," style="text;strokeColor=none;fillColor=none;align=left;verticalAlign=middle;spacingLeft=4;spacingRight=4;overflow=hidden;points=[[0,0.5],[1,0.5]];portConstraint=eastwest;rotatable=0;" vertex="1" parent="FKi8MtsjQ0KQ6AIrLRFd-33">
          <mxGeometry y="150" width="140" height="30" as="geometry" />
        </mxCell>
        <mxCell id="er8yijVsBBvzPavd1snB-3" value="of time, (Sharp, 5 min " style="text;strokeColor=none;fillColor=none;align=left;verticalAlign=middle;spacingLeft=4;spacingRight=4;overflow=hidden;points=[[0,0.5],[1,0.5]];portConstraint=eastwest;rotatable=0;" vertex="1" parent="FKi8MtsjQ0KQ6AIrLRFd-33">
          <mxGeometry y="180" width="140" height="30" as="geometry" />
        </mxCell>
        <mxCell id="er8yijVsBBvzPavd1snB-4" value="10) delay" style="text;strokeColor=none;fillColor=none;align=left;verticalAlign=middle;spacingLeft=4;spacingRight=4;overflow=hidden;points=[[0,0.5],[1,0.5]];portConstraint=eastwest;rotatable=0;" vertex="1" parent="FKi8MtsjQ0KQ6AIrLRFd-33">
          <mxGeometry y="210" width="140" height="30" as="geometry" />
        </mxCell>
        <mxCell id="FKi8MtsjQ0KQ6AIrLRFd-38" value="Creating Zone" style="swimlane;fontStyle=0;childLayout=stackLayout;horizontal=1;startSize=30;horizontalStack=0;resizeParent=1;resizeParentMax=0;resizeLast=0;collapsible=1;marginBottom=0;" vertex="1" parent="1">
          <mxGeometry x="460" y="-1770" width="140" height="150" as="geometry" />
        </mxCell>
        <mxCell id="FKi8MtsjQ0KQ6AIrLRFd-39" value="Time" style="text;strokeColor=none;fillColor=none;align=left;verticalAlign=middle;spacingLeft=4;spacingRight=4;overflow=hidden;points=[[0,0.5],[1,0.5]];portConstraint=eastwest;rotatable=0;" vertex="1" parent="FKi8MtsjQ0KQ6AIrLRFd-38">
          <mxGeometry y="30" width="140" height="30" as="geometry" />
        </mxCell>
        <mxCell id="FKi8MtsjQ0KQ6AIrLRFd-40" value="Place" style="text;strokeColor=none;fillColor=none;align=left;verticalAlign=middle;spacingLeft=4;spacingRight=4;overflow=hidden;points=[[0,0.5],[1,0.5]];portConstraint=eastwest;rotatable=0;" vertex="1" parent="FKi8MtsjQ0KQ6AIrLRFd-38">
          <mxGeometry y="60" width="140" height="30" as="geometry" />
        </mxCell>
        <mxCell id="FKi8MtsjQ0KQ6AIrLRFd-41" value="Percision of the place" style="text;strokeColor=none;fillColor=none;align=left;verticalAlign=middle;spacingLeft=4;spacingRight=4;overflow=hidden;points=[[0,0.5],[1,0.5]];portConstraint=eastwest;rotatable=0;" vertex="1" parent="FKi8MtsjQ0KQ6AIrLRFd-38">
          <mxGeometry y="90" width="140" height="30" as="geometry" />
        </mxCell>
        <mxCell id="sEahWVDjDcxmSHIVFA2n-1" value="List of Favourite address" style="text;strokeColor=none;fillColor=none;align=left;verticalAlign=middle;spacingLeft=4;spacingRight=4;overflow=hidden;points=[[0,0.5],[1,0.5]];portConstraint=eastwest;rotatable=0;" vertex="1" parent="FKi8MtsjQ0KQ6AIrLRFd-38">
          <mxGeometry y="120" width="140" height="30" as="geometry" />
        </mxCell>
        <mxCell id="FKi8MtsjQ0KQ6AIrLRFd-43" value="Adding a Person to list" style="swimlane;fontStyle=0;childLayout=stackLayout;horizontal=1;startSize=30;horizontalStack=0;resizeParent=1;resizeParentMax=0;resizeLast=0;collapsible=1;marginBottom=0;" vertex="1" parent="1">
          <mxGeometry x="650" y="-1770" width="140" height="120" as="geometry" />
        </mxCell>
        <mxCell id="FKi8MtsjQ0KQ6AIrLRFd-44" value="Search Bar" style="text;strokeColor=none;fillColor=none;align=left;verticalAlign=middle;spacingLeft=4;spacingRight=4;overflow=hidden;points=[[0,0.5],[1,0.5]];portConstraint=eastwest;rotatable=0;" vertex="1" parent="FKi8MtsjQ0KQ6AIrLRFd-43">
          <mxGeometry y="30" width="140" height="30" as="geometry" />
        </mxCell>
        <mxCell id="FKi8MtsjQ0KQ6AIrLRFd-45" value="Item 2" style="text;strokeColor=none;fillColor=none;align=left;verticalAlign=middle;spacingLeft=4;spacingRight=4;overflow=hidden;points=[[0,0.5],[1,0.5]];portConstraint=eastwest;rotatable=0;" vertex="1" parent="FKi8MtsjQ0KQ6AIrLRFd-43">
          <mxGeometry y="60" width="140" height="30" as="geometry" />
        </mxCell>
        <mxCell id="FKi8MtsjQ0KQ6AIrLRFd-46" value="Item 3" style="text;strokeColor=none;fillColor=none;align=left;verticalAlign=middle;spacingLeft=4;spacingRight=4;overflow=hidden;points=[[0,0.5],[1,0.5]];portConstraint=eastwest;rotatable=0;" vertex="1" parent="FKi8MtsjQ0KQ6AIrLRFd-43">
          <mxGeometry y="90" width="140" height="30" as="geometry" />
        </mxCell>
        <mxCell id="N7ADjUToNaB00IMNBGgR-3" value="Probably a Quick Demo" style="swimlane;fontStyle=0;childLayout=stackLayout;horizontal=1;startSize=30;horizontalStack=0;resizeParent=1;resizeParentMax=0;resizeLast=0;collapsible=1;marginBottom=0;" vertex="1" parent="1">
          <mxGeometry x="590" y="-2120" width="170" height="120" as="geometry" />
        </mxCell>
        <mxCell id="N7ADjUToNaB00IMNBGgR-4" value="Some BS about our values" style="text;strokeColor=none;fillColor=none;align=left;verticalAlign=middle;spacingLeft=4;spacingRight=4;overflow=hidden;points=[[0,0.5],[1,0.5]];portConstraint=eastwest;rotatable=0;" vertex="1" parent="N7ADjUToNaB00IMNBGgR-3">
          <mxGeometry y="30" width="170" height="30" as="geometry" />
        </mxCell>
        <mxCell id="N7ADjUToNaB00IMNBGgR-5" value="Easy to use BS" style="text;strokeColor=none;fillColor=none;align=left;verticalAlign=middle;spacingLeft=4;spacingRight=4;overflow=hidden;points=[[0,0.5],[1,0.5]];portConstraint=eastwest;rotatable=0;" vertex="1" parent="N7ADjUToNaB00IMNBGgR-3">
          <mxGeometry y="60" width="170" height="30" as="geometry" />
        </mxCell>
        <mxCell id="N7ADjUToNaB00IMNBGgR-6" value="Item 3" style="text;strokeColor=none;fillColor=none;align=left;verticalAlign=middle;spacingLeft=4;spacingRight=4;overflow=hidden;points=[[0,0.5],[1,0.5]];portConstraint=eastwest;rotatable=0;" vertex="1" parent="N7ADjUToNaB00IMNBGgR-3">
          <mxGeometry y="90" width="170" height="30" as="geometry" />
        </mxCell>
        <mxCell id="fke-OMip3FkiB2e0IV1S-1" value="Connection centre" style="swimlane;fontStyle=0;childLayout=stackLayout;horizontal=1;startSize=26;horizontalStack=0;resizeParent=1;resizeParentMax=0;resizeLast=0;collapsible=1;marginBottom=0;align=center;fontSize=13;" vertex="1" parent="1">
          <mxGeometry x="345" y="-1510" width="175" height="120" as="geometry" />
        </mxCell>
        <mxCell id="fke-OMip3FkiB2e0IV1S-2" value="Accepting people to be friend" style="text;strokeColor=none;fillColor=none;spacingLeft=4;spacingRight=4;overflow=hidden;rotatable=0;points=[[0,0.5],[1,0.5]];portConstraint=eastwest;fontSize=12;" vertex="1" parent="fke-OMip3FkiB2e0IV1S-1">
          <mxGeometry y="26" width="175" height="30" as="geometry" />
        </mxCell>
        <mxCell id="fke-OMip3FkiB2e0IV1S-3" value="Item 2" style="text;strokeColor=none;fillColor=none;spacingLeft=4;spacingRight=4;overflow=hidden;rotatable=0;points=[[0,0.5],[1,0.5]];portConstraint=eastwest;fontSize=12;" vertex="1" parent="fke-OMip3FkiB2e0IV1S-1">
          <mxGeometry y="56" width="175" height="30" as="geometry" />
        </mxCell>
        <mxCell id="fke-OMip3FkiB2e0IV1S-4" value="Item 3" style="text;strokeColor=none;fillColor=none;spacingLeft=4;spacingRight=4;overflow=hidden;rotatable=0;points=[[0,0.5],[1,0.5]];portConstraint=eastwest;fontSize=12;" vertex="1" parent="fke-OMip3FkiB2e0IV1S-1">
          <mxGeometry y="86" width="175" height="34" as="geometry" />
        </mxCell>
        <mxCell id="W7YFgDN2XZlQTsZUcmS8-1" value="Forgot Password?" style="text;html=1;strokeColor=none;fillColor=none;align=center;verticalAlign=middle;whiteSpace=wrap;rounded=0;" vertex="1" parent="1">
          <mxGeometry x="387.5" y="-2010" width="90" height="50" as="geometry" />
        </mxCell>
      </root>
    </mxGraphModel>
  </diagram>
</mxfile>
